<?xml version="1.0" encoding="UTF-8"?>
<svg id="_레이어_2" data-name="레이어 2" xmlns="http://www.w3.org/2000/svg" viewBox="0 0 180.74 180.74">
  <defs>
    <style>
      .cls-1 {
        fill: #fff;
      }

      .cls-2 {
        fill: #46cdcf;
      }
    </style>
  </defs>
  <g id="_레이어_1-2" data-name="레이어 1">
    <rect class="cls-1" y="0" width="180.74" height="180.74" rx="47" ry="47"/>
    <path class="cls-2" d="M133.74,0H47C21.04,0,0,21.04,0,47v86.74C0,159.7,21.04,180.74,47,180.74h11.42c1-10.52,2.61-28.48.54-31.02-5.74-7.02-15.89-12.63-21.92-19.66-4.35-9.36-13.08-19.98-16.69-29.32-1.91-4.9-2.31-19.76-2.9-25.88-.22-2.18-1.86-5.64.02-7.58,1.66-1.71,3.95-1.19,5.07.75l5.75,21.65c.07.86-2.11,2.5-2.33,4.27-.22,1.74.15,4.15,1.06,5.65,7.07,7.92,15.06,15.09,22.08,23.03,1.4,1.58,6.6,9.17,8.12,9.19.91.02,1.7-.69,1.72-1.6.04-.62-.33-1.03-.61-1.51-1.2-2.11-4.82-6.37-6.54-8.34-6.86-7.88-15.19-15.08-22.09-23.01-1.74-3.4,2.04-6.98,5.26-4.8,5.32,3.58,11.15,10.46,16.43,13.65,4.01,2.46,10.34,3.59,13.96,6.33,1.86,1.39,12.68,15.05,13.47,17.1.36.89.59,1.73.75,2.67,1.39,8.4,1.98,35.03,2.8,48.41h14.64c1.14-16.97.74-27.56,2.51-36.6.33-1.63,1.06-3.04,1.99-4.41,1.87-2.74,10.21-13.04,12.54-14.71,3.65-2.64,10.06-3.76,14.09-6.08,5.26-3.02,11.31-9.91,16.66-13.35,3.19-2.14,7.03,1.56,5.17,4.9-7.03,7.81-15.26,14.63-22.3,22.38-1.81,2-2.25,1.86-3.53,4.01-.28.47-4.04,5.3-4.01,5.91,0,.91.78,1.63,1.69,1.63,1.44,0,6.92-7.53,8.29-9.04,7.38-8.05,15.82-15.14,22.98-23.39,1.32-3.33.88-6.22-1.54-8.83l6.01-21.55c.94-2.7,4.95-2.69,5.81,0,.68,2.15-.45,3.85-.67,5.76-.74,6.3-1.37,21.58-3.45,26.63-3.79,9.28-12.71,19.74-17.21,29-6.22,6.86-16.47,12.43-22.28,19.27-2.36,2.77-.48,8.15.23,18.44h13.74c25.96,0,47-21.04,47-47V47c0-25.96-21.04-47-47-47ZM136.1,62.51c-13.11,1.48-31.49,4.28-35.82,8.61s-7.12,43.35-8.6,71.94c-.09,1.66-2.53,1.66-2.61,0-1.48-28.59-4.28-67.62-8.6-71.94s-22.71-7.13-35.82-8.61c-1.55-.18-1.55-2.43,0-2.6,13.11-1.48,31.49-4.28,35.82-8.61,4.33-4.33,7.13-20.57,8.61-32.07.2-1.52,2.4-1.52,2.6,0,1.48,11.5,4.28,27.73,8.61,32.07,4.33,4.33,22.71,7.13,35.82,8.61,1.55.18,1.55,2.43,0,2.6Z"/>
  </g>
</svg>